<svg xmlns="http://www.w3.org/2000/svg" viewBox="0 0 160 160" role="img" aria-label="North Capital">
<defs><linearGradient id="g" x1="18" y1="145" x2="145" y2="12" gradientUnits="userSpaceOnUse"><stop stop-color="#875416"/><stop offset=".36" stop-color="#d3a34d"/><stop offset=".68" stop-color="#f7e7ae"/><stop offset="1" stop-color="#ae7422"/></linearGradient><radialGradient id="n"><stop stop-color="#0c2438"/><stop offset="1" stop-color="#020b14"/></radialGradient><filter id="s" x="-30%" y="-30%" width="160%" height="160%"><feGaussianBlur stdDeviation="2" result="b"/><feMerge><feMergeNode in="b"/><feMergeNode in="SourceGraphic"/></feMerge></filter></defs>
<circle cx="80" cy="80" r="70" fill="url(#n)" stroke="url(#g)" stroke-width="4"/><circle cx="80" cy="80" r="54" fill="none" stroke="#29485f" stroke-width="1.7"/><path d="M80 7l12 50 36-27-27 38 52 12-52 12 27 38-36-27-12 50-12-50-36 27 27-38L7 80l52-12-27-38 36 27z" fill="url(#g)" filter="url(#s)"/><path d="M80 31l7 32 24-18-18 25 34 10-34 9 18 26-24-19-7 33-8-33-24 19 19-26-34-9 34-10-19-25 24 18z" fill="#061523"/><path d="M47 116V99h9v17zm16 0V87h9v29zm16 0V72h9v44zm16 0V59h9v57zm16 0V81h9v35z" fill="#edf5fb"/><path d="M45 116h78" stroke="url(#g)" stroke-width="4" stroke-linecap="round"/></svg>